<svg width="100" height="100" viewBox="0 0 100 100" fill="none" xmlns="http://www.w3.org/2000/svg">
<path d="M64.1999 67.9C71.8999 55.4 79.5999 40.7 79.5999 32.1C79.5999 15.8 66.2999 2.5 49.9999 2.5C33.6999 2.5 20.3999 15.8 20.3999 32.1C20.3999 40.7 28.1999 55.4 35.7999 67.9C24.8999 70 16.3999 74.6 16.3999 81.9C16.3999 92.1 33.2999 97.5 49.9999 97.5C66.6999 97.5 83.5999 92.1 83.5999 81.9C83.5999 74.6 75.0999 70 64.1999 67.9ZM49.9999 9.2C62.6999 9.2 72.9999 19.5 72.9999 32.2C72.9999 39.5 64.4999 56.4 49.7999 77.3C35.4999 56.3 26.9999 39.4 26.9999 32.1C26.9999 19.5 37.2999 9.2 49.9999 9.2ZM49.9999 90.8C33.7999 90.8 23.0999 85.4 23.0999 81.9C23.0999 79.2 29.3999 75.5 39.4999 73.8C41.1999 76.4 42.7999 78.9 44.1999 81C45.4999 82.9 47.5999 84 49.8999 84C52.1999 84 54.2999 82.9 55.5999 81C56.9999 78.9 58.6999 76.4 60.2999 73.8C70.3999 75.4 76.6999 79.2 76.6999 81.9C76.8999 85.4 66.1999 90.8 49.9999 90.8Z" fill="#293266"/>
<path d="M64.5999 32.1C64.5999 24 57.9999 17.5 49.9999 17.5C41.8999 17.5 35.3999 24.1 35.3999 32.1C35.3999 40.1 41.8999 46.7 49.9999 46.7C58.0999 46.7 64.5999 40.2 64.5999 32.1ZM42.0999 32.1C42.0999 27.7 45.6999 24.2 49.9999 24.2C54.2999 24.2 57.8999 27.8 57.8999 32.1C57.8999 36.4 54.2999 40 49.9999 40C45.6999 40 42.0999 36.5 42.0999 32.1Z" fill="#293266"/>
</svg>
