<svg width="100" height="100" viewBox="0 0 100 100" fill="none" xmlns="http://www.w3.org/2000/svg">
<path d="M49.5 30C54.5 30 59.5 32 63 36L70 29C64.5 23 57 20 49.5 20C41.5 20 34.5 23 28.5 29C17 40.5 17 59.5 28.5 71.5C34 77 41.5 80 49.5 80C57.5 80 64.5 77 70.5 71L63.5 64C56 71.5 43.5 71.5 36.5 64C29 56 29 43.5 36.5 35.5C39.5 32 44 30 49.5 30Z" fill="#293266"/>
<path d="M50 0C22.5 0 0 22.5 0 50C0 77.5 22.5 100 50 100C77.5 100 100 77.5 100 50C100 22.5 77.5 0 50 0ZM50 90C28 90 10 72 10 50C10 28 28 10 50 10C72 10 90 28 90 50C90 72 72 90 50 90Z" fill="#293266"/>
</svg>
