<svg width="90" height="60" viewBox="0 0 90 60" fill="none" xmlns="http://www.w3.org/2000/svg">
<path d="M4 0C1.8358 0 0 1.83585 0 4V56C0 58.1641 1.8358 60 4 60H86C88.1642 60 90 58.1641 90 56V4C90 1.83585 88.1642 0 86 0H4V0ZM9.9375 6H80.0625L45 36.0625L9.9375 6V6ZM6 10.4688L27.0938 28.5625L6 49.6562V10.4688V10.4688ZM84 10.4688V49.6562L62.9062 28.5625L84 10.4688ZM31.6562 32.5L43.0625 42.25C43.6041 42.7081 44.2906 42.9595 45 42.9595C45.7094 42.9595 46.3959 42.7081 46.9375 42.25L58.3438 32.5L79.8438 54H10.1562L31.6562 32.5Z" fill="#293266"/>
</svg>
