<svg width="133" height="39" viewBox="0 0 133 39" fill="none" xmlns="http://www.w3.org/2000/svg">
<path d="M12.9023 3.344C14.7263 3.344 16.1983 3.52 17.3183 3.872C18.4703 4.192 19.5903 4.656 20.6783 5.264C21.0303 5.456 21.3343 5.616 21.5903 5.744C21.8783 5.872 22.1183 5.936 22.3103 5.936C22.5983 5.936 22.8223 5.776 22.9823 5.456C23.1423 5.104 23.2703 4.56 23.3663 3.824H24.4703C24.3103 6.128 24.2303 10.032 24.2303 15.536H23.1263C22.9983 13.712 22.5823 11.968 21.8783 10.304C21.1743 8.64 20.2143 7.28 18.9983 6.224C17.7823 5.168 16.3743 4.64 14.7743 4.64C13.3023 4.64 12.1183 5.04 11.2223 5.84C10.3263 6.608 9.87825 7.696 9.87825 9.104C9.87825 10.192 10.1183 11.136 10.5983 11.936C11.0783 12.736 11.7823 13.52 12.7103 14.288C13.6383 15.024 15.1583 16.128 17.2703 17.6C17.4623 17.696 17.6383 17.808 17.7983 17.936C17.9903 18.064 18.1663 18.192 18.3263 18.32C20.0863 19.536 21.4943 20.624 22.5503 21.584C23.6063 22.512 24.4543 23.6 25.0943 24.848C25.7663 26.096 26.1023 27.536 26.1023 29.168C26.1023 31.248 25.5103 33.008 24.3263 34.448C23.1743 35.856 21.6063 36.912 19.6223 37.616C17.6383 38.32 15.4463 38.672 13.0463 38.672C11.0943 38.672 9.46225 38.512 8.15025 38.192C6.87025 37.872 5.67025 37.44 4.55025 36.896C3.84625 36.448 3.30225 36.224 2.91825 36.224C2.63025 36.224 2.40625 36.4 2.24625 36.752C2.08625 37.072 1.95825 37.6 1.86225 38.336H0.75825C0.88625 36.16 0.95025 31.52 0.95025 24.416H2.05425C2.27825 28.224 3.07825 31.312 4.45425 33.68C5.83025 36.048 7.94225 37.232 10.7903 37.232C12.5503 37.232 13.9423 36.816 14.9663 35.984C16.0223 35.152 16.5503 34 16.5503 32.528C16.5503 30.704 15.9743 29.152 14.8223 27.872C13.7023 26.56 11.9423 25.104 9.54225 23.504C7.62225 22.224 6.08625 21.104 4.93425 20.144C3.78225 19.184 2.83825 18.08 2.10225 16.832C1.36625 15.552 0.99825 14.08 0.99825 12.416C0.99825 10.4 1.54225 8.72 2.63025 7.376C3.71825 6 5.15825 4.992 6.95025 4.352C8.77425 3.68 10.7583 3.344 12.9023 3.344ZM39.9398 13.088H44.6438V14.048H39.9398V33.968C39.9398 34.608 40.0518 35.056 40.2758 35.312C40.4998 35.568 40.8678 35.696 41.3798 35.696C41.7638 35.696 42.1958 35.584 42.6758 35.36C43.1558 35.136 43.5878 34.784 43.9718 34.304L44.6918 34.88C43.2198 37.408 40.9478 38.672 37.8758 38.672C35.6678 38.672 34.0198 38.128 32.9318 37.04C32.2598 36.368 31.8118 35.536 31.5878 34.544C31.3958 33.552 31.2998 32.16 31.2998 30.368V14.048H27.6517V13.088H31.2998V7.424C33.0278 7.424 34.5798 7.264 35.9558 6.944C37.3638 6.592 38.6918 6.048 39.9398 5.312V13.088ZM70.929 32.768C70.929 34.24 71.121 35.312 71.505 35.984C71.921 36.656 72.625 36.992 73.617 36.992V38C72.625 37.904 71.633 37.856 70.641 37.856C67.313 37.856 64.529 38.08 62.289 38.528V35.072C60.849 37.472 58.305 38.672 54.657 38.672C52.097 38.672 50.289 38.032 49.233 36.752C48.753 36.176 48.401 35.408 48.177 34.448C47.953 33.456 47.841 32.16 47.841 30.56V18.32C47.841 16.848 47.633 15.776 47.217 15.104C46.833 14.432 46.145 14.096 45.153 14.096V13.088C46.145 13.184 47.137 13.232 48.129 13.232C51.457 13.232 54.241 13.008 56.481 12.56V33.152C56.481 34.176 56.657 34.944 57.009 35.456C57.393 35.936 58.001 36.176 58.833 36.176C59.761 36.176 60.561 35.856 61.233 35.216C61.937 34.544 62.289 33.712 62.289 32.72V18.32C62.289 16.848 62.081 15.776 61.665 15.104C61.281 14.432 60.593 14.096 59.601 14.096V13.088C60.593 13.184 61.585 13.232 62.577 13.232C65.905 13.232 68.689 13.008 70.929 12.56V32.768ZM53.121 0.943999C54.209 0.943999 55.169 1.36 56.001 2.192C56.865 3.024 57.297 4 57.297 5.12C57.297 6.272 56.881 7.264 56.049 8.096C55.217 8.896 54.241 9.296 53.121 9.296C51.969 9.296 50.977 8.896 50.145 8.096C49.345 7.264 48.945 6.272 48.945 5.12C48.945 4 49.345 3.024 50.145 2.192C50.977 1.36 51.969 0.943999 53.121 0.943999ZM64.545 0.943999C65.633 0.943999 66.593 1.36 67.425 2.192C68.289 3.024 68.721 4 68.721 5.12C68.721 6.272 68.305 7.264 67.473 8.096C66.641 8.896 65.665 9.296 64.545 9.296C63.393 9.296 62.401 8.896 61.569 8.096C60.769 7.264 60.369 6.272 60.369 5.12C60.369 4 60.769 3.024 61.569 2.192C62.401 1.36 63.393 0.943999 64.545 0.943999ZM100.788 32.768C100.788 34.24 100.98 35.312 101.364 35.984C101.78 36.656 102.484 36.992 103.476 36.992V38C102.484 37.904 101.492 37.856 100.5 37.856C97.1724 37.856 94.3884 38.08 92.1484 38.528V35.072C90.7084 37.472 88.1644 38.672 84.5164 38.672C81.9564 38.672 80.1484 38.032 79.0924 36.752C78.6124 36.176 78.2604 35.408 78.0364 34.448C77.8124 33.456 77.7004 32.16 77.7004 30.56V18.32C77.7004 16.848 77.4924 15.776 77.0764 15.104C76.6924 14.432 76.0044 14.096 75.0124 14.096V13.088C76.0044 13.184 76.9964 13.232 77.9884 13.232C81.3164 13.232 84.1004 13.008 86.3404 12.56V33.152C86.3404 34.176 86.5164 34.944 86.8684 35.456C87.2524 35.936 87.8604 36.176 88.6924 36.176C89.6204 36.176 90.4204 35.856 91.0924 35.216C91.7964 34.544 92.1484 33.712 92.1484 32.72V18.32C92.1484 16.848 91.9404 15.776 91.5244 15.104C91.1404 14.432 90.4524 14.096 89.4604 14.096V13.088C90.4524 13.184 91.4444 13.232 92.4364 13.232C95.7644 13.232 98.5484 13.008 100.788 12.56V32.768ZM130.12 32.72C130.12 34.192 130.312 35.264 130.696 35.936C131.112 36.608 131.816 36.944 132.808 36.944V37.952C131.816 37.856 130.824 37.808 129.832 37.808C126.504 37.808 123.72 38.032 121.48 38.48V35.072C120.808 36.32 120.008 37.232 119.08 37.808C118.184 38.384 117.032 38.672 115.624 38.672C112.68 38.672 110.312 37.584 108.52 35.408C106.728 33.2 105.832 29.856 105.832 25.376C105.832 21.12 106.776 17.904 108.664 15.728C110.584 13.52 113.192 12.416 116.488 12.416C118.536 12.416 120.2 12.816 121.48 13.616V6.224C121.48 4.752 121.272 3.68 120.856 3.008C120.472 2.336 119.784 2 118.792 2V0.991999C119.784 1.088 120.776 1.136 121.768 1.136C125.096 1.136 127.88 0.911999 130.12 0.463997V32.72ZM118.024 36.176C118.952 36.176 119.752 35.856 120.424 35.216C121.128 34.544 121.48 33.712 121.48 32.72V14.624C120.776 14.208 120.024 14 119.224 14C117.72 14 116.6 14.96 115.864 16.88C115.16 18.768 114.808 21.648 114.808 25.52C114.808 29.456 115.096 32.224 115.672 33.824C116.248 35.392 117.032 36.176 118.024 36.176Z" fill="#FA6C00"/>
</svg>
