<svg width="97" height="97" viewBox="0 0 97 97" fill="none" xmlns="http://www.w3.org/2000/svg">
<path d="M92.8429 68.2519L81.2218 56.6211C78.9269 54.2383 76.1535 52.9883 73.214 52.9883C70.2941 52.9883 67.5011 54.2383 65.1378 56.5918L59.0831 62.6465C58.7804 62.4902 58.4874 62.3437 58.214 62.207C57.5011 61.8555 56.8175 61.5039 56.2316 61.1328C50.089 57.2363 44.4933 52.1289 39.1124 45.5371C36.7394 42.5391 35.0988 40.0195 33.9074 37.5391C35.4406 36.1035 36.8859 34.6387 38.2531 33.2324C38.8292 32.6465 39.4347 32.041 40.0207 31.4551C42.4425 29.0332 43.7218 26.2109 43.7218 23.3008C43.7218 20.3711 42.4425 17.5488 40.0207 15.1465L34.2492 9.375C33.5949 8.7207 32.9699 8.08594 32.3253 7.41211L32.296 7.38281C31.0363 6.08398 29.6789 4.70703 28.3214 3.44727C26.0167 1.19141 23.2628 0 20.3527 0C17.4621 0 14.6789 1.20117 12.3058 3.4668L5.03042 10.7422C2.09096 13.6523 0.430806 17.207 0.0890094 21.3086C-0.301616 26.1914 0.587056 31.3477 2.88198 37.5098C6.33901 46.9043 11.5441 55.5957 19.2589 64.8633C28.6046 76.0352 39.8937 84.873 52.7941 91.1328L52.8039 91.1426C57.7941 93.5059 64.4738 96.2793 71.8664 96.7578H71.9542C72.3839 96.7773 72.8234 96.7969 73.2921 96.7969C78.5949 96.7969 82.8722 94.9609 86.3585 91.1816C86.4171 91.1133 86.4953 91.0352 86.5734 90.9277C87.5499 89.7656 88.6632 88.6719 89.8546 87.5293L90.1281 87.2656C91.2414 86.2012 92.1203 85.3223 92.9015 84.5117C95.2355 82.0801 96.466 79.2578 96.4562 76.3379C96.4562 73.4082 95.2062 70.6152 92.8429 68.2519V68.2519ZM8.14565 21.9922C8.34096 19.7754 9.17104 18.0078 10.7433 16.4355L17.9406 9.23828C18.7316 8.47656 19.5617 8.06641 20.3332 8.06641C21.2707 8.06641 22.1007 8.71094 22.6281 9.24805L22.6867 9.30664C23.7804 10.3223 24.8351 11.3965 25.9484 12.5293L26.4562 13.0469C26.7882 13.3887 27.13 13.7305 27.4718 14.082C27.8039 14.4141 28.1359 14.7559 28.4679 15.0977L34.2589 20.8887C34.8644 21.4941 35.5871 22.4121 35.5871 23.3301C35.5871 24.248 34.8644 25.166 34.2589 25.7715C33.9562 26.0742 33.6535 26.377 33.3507 26.6895C33.0578 26.9922 32.755 27.2949 32.4523 27.5977L32.0421 28.0078C30.4113 29.6582 28.8585 31.2207 27.1886 32.7148L27.0226 32.8809C24.4933 35.4102 25.3624 38.0273 25.6457 38.8867C25.6652 38.9551 25.6847 39.0039 25.7042 39.0625L25.7433 39.1602C27.3253 42.9492 29.4933 46.4844 32.7746 50.6152L32.7843 50.625C38.6925 57.9102 44.923 63.584 51.8468 67.9883C52.6085 68.4863 53.38 68.877 54.132 69.248C54.2687 69.3164 54.4152 69.3848 54.5519 69.4629L54.5617 69.4727C55.2746 69.8242 55.9581 70.1758 56.5441 70.5469L56.7199 70.6445C56.7785 70.6738 56.8371 70.7129 56.8956 70.7422C57.755 71.1816 58.6437 71.4062 59.5324 71.4062C61.0363 71.4062 62.4035 70.8008 63.5949 69.5996L70.841 62.3535C71.4074 61.7871 72.2667 61.123 73.2042 61.123C74.1613 61.123 74.9914 61.8652 75.4113 62.3145L75.4308 62.334L87.13 74.0137C88.8097 75.6934 88.7804 77.1777 87.0519 78.9746L87.0324 78.9941C86.2121 79.873 85.3429 80.7129 84.5226 81.5039L84.2882 81.7285C82.9796 82.998 81.632 84.3066 80.3722 85.8105C78.4581 87.8613 76.2804 88.7695 73.3117 88.7695C73.0382 88.7695 72.7257 88.75 72.4132 88.7305C66.3488 88.3398 60.6359 85.9473 56.3292 83.8965C44.4738 78.1543 34.0929 70.0293 25.4894 59.7363C18.3898 51.1914 13.6242 43.252 10.4699 34.7461C8.60463 29.7266 7.85268 25.6641 8.14565 21.9922V21.9922Z" fill="#293266"/>
</svg>
