<svg height='100px' width='100px'  fill="#000000" xmlns="http://www.w3.org/2000/svg" xmlns:xlink="http://www.w3.org/1999/xlink" version="1.1" x="0px" y="0px" viewBox="17 176.375 48 48" enable-background="new 17 176.375 48 48" xml:space="preserve"><path fill="#000000" d="M41,176.375c-13.255,0-24,10.745-24,24s10.745,24,24,24s24-10.745,24-24S54.255,176.375,41,176.375z   M52.812,196.801l-12.819,12.82c-1.557,1.556-4.022,1.635-5.48,0.177c-0.209-0.209-0.378-0.442-0.523-0.688l-5.24-5.238  c-1.557-1.557-1.636-4.021-0.178-5.479c1.459-1.457,3.925-1.379,5.48,0.178l3.194,3.194L47.509,191.5  c1.558-1.556,4.022-1.635,5.479-0.177C54.447,192.779,54.367,195.246,52.812,196.801z"></path></svg>