<svg height='100px' width='100px'  fill="#000000" xmlns:x="http://ns.adobe.com/Extensibility/1.0/" xmlns:i="http://ns.adobe.com/AdobeIllustrator/10.0/" xmlns:graph="http://ns.adobe.com/Graphs/1.0/" xmlns="http://www.w3.org/2000/svg" xmlns:xlink="http://www.w3.org/1999/xlink" version="1.1" x="0px" y="0px" viewBox="0 0 100 100" style="enable-background:new 0 0 100 100;" xml:space="preserve"><g><g i:extraneous="self"><g><path d="M86.5,10.5H73.3V8.8c0-2-1.6-3.7-3.7-3.7S66,6.8,66,8.8v1.7H34V8.8c0-2-1.6-3.7-3.7-3.7s-3.7,1.6-3.7,3.7v1.7H13.5     c-6,0-11,4.9-11,11v62.4c0,6,4.9,11,11,11h73.1c6,0,11-4.9,11-11V21.5C97.5,15.5,92.6,10.5,86.5,10.5z M13.5,17.9h13.2v1.7     c0,2,1.6,3.7,3.7,3.7s3.7-1.6,3.7-3.7v-1.7h32v1.7c0,2,1.6,3.7,3.7,3.7s3.7-1.6,3.7-3.7v-1.7h13.2c2,0,3.7,1.6,3.7,3.7v7.4H9.8     v-7.4C9.8,19.5,11.4,17.9,13.5,17.9z M86.5,87.5H13.5c-2,0-3.7-1.6-3.7-3.7V36.2h80.4v47.7C90.2,85.9,88.6,87.5,86.5,87.5z"></path><path d="M30.6,43.6H21c-2,0-3.7,1.6-3.7,3.7c0,2,1.6,3.7,3.7,3.7h9.7c2,0,3.7-1.6,3.7-3.7C34.3,45.2,32.7,43.6,30.6,43.6z"></path><path d="M54.8,43.6h-9.7c-2,0-3.7,1.6-3.7,3.7c0,2,1.6,3.7,3.7,3.7h9.7c2,0,3.7-1.6,3.7-3.7C58.5,45.2,56.9,43.6,54.8,43.6z"></path><path d="M79,43.6h-9.7c-2,0-3.7,1.6-3.7,3.7c0,2,1.6,3.7,3.7,3.7H79c2,0,3.7-1.6,3.7-3.7C82.7,45.2,81.1,43.6,79,43.6z"></path><path d="M30.6,58.2H21c-2,0-3.7,1.6-3.7,3.7c0,2,1.6,3.7,3.7,3.7h9.7c2,0,3.7-1.6,3.7-3.7C34.3,59.9,32.7,58.2,30.6,58.2z"></path><path d="M54.8,58.2h-9.7c-2,0-3.7,1.6-3.7,3.7c0,2,1.6,3.7,3.7,3.7h9.7c2,0,3.7-1.6,3.7-3.7C58.5,59.9,56.9,58.2,54.8,58.2z"></path><path d="M79,58.2h-9.7c-2,0-3.7,1.6-3.7,3.7c0,2,1.6,3.7,3.7,3.7H79c2,0,3.7-1.6,3.7-3.7C82.7,59.9,81.1,58.2,79,58.2z"></path><path d="M30.6,72.9H21c-2,0-3.7,1.6-3.7,3.7s1.6,3.7,3.7,3.7h9.7c2,0,3.7-1.6,3.7-3.7S32.7,72.9,30.6,72.9z"></path><path d="M54.8,72.9h-9.7c-2,0-3.7,1.6-3.7,3.7s1.6,3.7,3.7,3.7h9.7c2,0,3.7-1.6,3.7-3.7S56.9,72.9,54.8,72.9z"></path><path d="M79,72.9h-9.7c-2,0-3.7,1.6-3.7,3.7s1.6,3.7,3.7,3.7H79c2,0,3.7-1.6,3.7-3.7S81.1,72.9,79,72.9z"></path></g></g></g></svg>