<svg height='100px' width='100px'  fill="#000000" xmlns="http://www.w3.org/2000/svg" xmlns:xlink="http://www.w3.org/1999/xlink" version="1.1" x="0px" y="0px" viewBox="0 0 100 100" style="enable-background:new 0 0 100 100;" xml:space="preserve"><style type="text/css">
	.st0{fill-rule:evenodd;clip-rule:evenodd;}
</style><path d="M27.4,8.6h6.7l16,36.9H41l-3.2-7.8H23.5l-3.1,7.8h-9L27.4,8.6z M30.6,19.3l-4.5,11.5h9L30.6,19.3z"></path><path d="M16.3,83.4L35,61.2h-18V54h27.9v7.2L26.5,83.4h19v7.5H16.3V83.4z"></path><path class="st0" d="M86.6,64.9h-8.3V12.8c0-2.3-1.9-4.2-4.2-4.2h-4.5c-2.3,0-4.2,1.9-4.2,4.2v52.1h-8.3c-1.7,0-2.4,1.1-1.5,2.5  l14.6,22.5c0.9,1.4,2.4,1.4,3.3,0l14.6-22.5C89,66,88.3,64.9,86.6,64.9z"></path></svg>