<svg height='100px' width='100px'  fill="#000000" xmlns="http://www.w3.org/2000/svg" xmlns:xlink="http://www.w3.org/1999/xlink" version="1.1" x="0px" y="0px" viewBox="0 0 512 512" style="enable-background:new 0 0 512 512;" xml:space="preserve"><g><g><g><g><path d="M410,178.269c-8.836,0-16-7.164-16-16v-8.934c0-8.836,7.164-16,16-16s16,7.164,16,16v8.934      C426,171.105,418.836,178.269,410,178.269z"></path></g><path d="M410,123.287c8.836,0,16-7.164,16-16V52c0-16.542-13.458-30-30-30H116c-16.542,0-30,13.458-30,30v408     c0,16.542,13.458,30,30,30h195.599c4.236,0,8.299-1.68,11.298-4.671l98.401-98.134c3.01-3.002,4.702-7.078,4.702-11.329V209.563     c0-8.836-7.164-16-16-16s-16,7.164-16,16v150.303h-82.4c-8.836,0-16,7.164-16,16V458H118V54h276v53.287     C394,116.123,401.164,123.287,410,123.287z M371.299,391.866l-43.699,43.58v-43.58H371.299z"></path></g><g><g><g><path d="M344.456,232.971H173.868c-8.836,0-16-7.164-16-16s7.164-16,16-16h170.588c8.836,0,16,7.164,16,16       S353.292,232.971,344.456,232.971z"></path></g><g><path d="M344.456,172.971H173.868c-8.836,0-16-7.164-16-16s7.164-16,16-16h170.588c8.836,0,16,7.164,16,16       S353.292,172.971,344.456,172.971z"></path></g><g><path d="M344.456,112.971H173.868c-8.836,0-16-7.164-16-16s7.164-16,16-16h170.588c8.836,0,16,7.164,16,16       S353.292,112.971,344.456,112.971z"></path></g></g><g><path d="M217.746,333.121c-17.854-7.388-20.867-11.34-20.867-17.404c0-5.615,4.066-11.615,15.479-11.615      c10.215,0,18.357,3.908,26.944,8.814l8.4-22.174c-8.288-4.858-16.62-8.296-26.287-9.263v-19.061h-21.978v20.44      c-17.863,4.468-29.172,17.904-29.172,35.176c0,21.441,17.719,31.28,34.998,38.056c16.442,6.666,18.709,12.762,18.709,18.356      c0,8.334-7.229,13.933-17.99,13.933c-11.554,0-21.042-4.798-30.37-11.017l-8.068,22.525c9.043,6.65,19.335,10.303,30.54,11.353      v19.788h22.171v-21.03c18.429-4.662,30.524-19.054,30.524-36.904C250.779,349.603,233.113,339.387,217.746,333.121      C199.891,325.733,233.113,339.387,217.746,333.121C199.891,325.733,233.113,339.387,217.746,333.121      C199.891,325.733,233.113,339.387,217.746,333.121C199.891,325.733,233.113,339.387,217.746,333.121      C199.891,325.733,233.113,339.387,217.746,333.121z"></path></g></g></g></g></svg>