<svg height='100px' width='100px'  fill="#000000" xmlns="http://www.w3.org/2000/svg" xmlns:xlink="http://www.w3.org/1999/xlink" version="1.1" x="0px" y="0px" viewBox="17 176.375 48 48" enable-background="new 17 176.375 48 48" xml:space="preserve"><path fill="#000000" d="M41,186.136c-7.726,0-13.989,6.265-13.989,13.989c0,7.725,6.263,13.988,13.989,13.988  c7.727,0,13.988-6.264,13.988-13.988C54.988,192.401,48.727,186.136,41,186.136z M48.027,202.792h-7.361  c-0.076,0-0.148-0.015-0.222-0.021c-0.033,0-0.064,0.01-0.097,0.01c-1.282,0-2.332-1.105-2.332-2.455v-10.223  c0-1.352,1.05-2.455,2.332-2.455c1.283,0,2.333,1.104,2.333,2.455v8.022h5.348c1.369,0,2.49,1.049,2.49,2.332  S49.396,202.792,48.027,202.792z M41,176.375c-13.255,0-24,10.745-24,24s10.745,24,24,24s24-10.745,24-24S54.255,176.375,41,176.375  z M41,217.697c-9.705,0-17.572-7.867-17.572-17.572S31.295,182.553,41,182.553s17.572,7.867,17.572,17.572  S50.705,217.697,41,217.697z"></path></svg>