<svg height='100px' width='100px'  fill="#000000" xmlns:x="http://ns.adobe.com/Extensibility/1.0/" xmlns:i="http://ns.adobe.com/AdobeIllustrator/10.0/" xmlns:graph="http://ns.adobe.com/Graphs/1.0/" xmlns="http://www.w3.org/2000/svg" xmlns:xlink="http://www.w3.org/1999/xlink" version="1.1" x="0px" y="0px" viewBox="0 0 100 100" style="enable-background:new 0 0 100 100;" xml:space="preserve"><g><g i:extraneous="self"><g><path d="M5273.1,2400.1v-2c0-2.8-5-4-9.7-4s-9.7,1.3-9.7,4v2c0,1.8,0.7,3.6,2,4.9l5,4.9c0.3,0.3,0.4,0.6,0.4,1v6.4     c0,0.4,0.2,0.7,0.6,0.8l2.9,0.9c0.5,0.1,1-0.2,1-0.8v-7.2c0-0.4,0.2-0.7,0.4-1l5.1-5C5272.4,2403.7,5273.1,2401.9,5273.1,2400.1z      M5263.4,2400c-4.8,0-7.4-1.3-7.5-1.8v0c0.1-0.5,2.7-1.8,7.5-1.8c4.8,0,7.3,1.3,7.5,1.8C5270.7,2398.7,5268.2,2400,5263.4,2400z"></path><path d="M5268.4,2410.3c-0.6,0-1,0.4-1,1c0,0.6,0.4,1,1,1h4.3c0.6,0,1-0.4,1-1c0-0.6-0.4-1-1-1H5268.4z"></path><path d="M5272.7,2413.7h-4.3c-0.6,0-1,0.4-1,1c0,0.6,0.4,1,1,1h4.3c0.6,0,1-0.4,1-1C5273.7,2414.1,5273.3,2413.7,5272.7,2413.7z"></path><path d="M5272.7,2417h-4.3c-0.6,0-1,0.4-1,1c0,0.6,0.4,1,1,1h4.3c0.6,0,1-0.4,1-1C5273.7,2417.5,5273.3,2417,5272.7,2417z"></path></g><g><path d="M56.6,48.1l-10.2-3.9c-1.8-0.7-3-2.4-3-4.3c0-1.2,0.5-2.4,1.3-3.2c0.9-0.9,2-1.3,3.3-1.3h4c2.1,0,3.8,1.3,4.4,3.3     c0.6,2.2,2.9,3.4,5.1,2.8c2.2-0.6,3.5-2.9,2.8-5.1c-1.3-4.8-5.4-8.3-10.2-9.1v-3.4c0-2.3-1.8-4.1-4.1-4.1c-2.3,0-4.1,1.8-4.1,4.1     v3.5c-2.6,0.4-5,1.7-6.9,3.5c-2.4,2.4-3.7,5.7-3.7,9c0,5.2,3.3,10,8.2,11.9l10.2,3.9c1.8,0.7,3,2.4,3,4.3c0,2.5-2.1,4.6-4.6,4.6     h-4c-2.1,0-3.8-1.3-4.4-3.3c-0.6-2.2-2.9-3.5-5.1-2.8c-2.2,0.6-3.5,2.9-2.8,5.1c1.3,4.8,5.4,8.3,10.1,9.1v3.4     c0,2.3,1.8,4.1,4.1,4.1c2.3,0,4.1-1.8,4.1-4.1v-3.4c6-1,10.7-6.2,10.7-12.6C64.8,54.8,61.6,50.1,56.6,48.1z"></path><path d="M50,2.5C23.8,2.5,2.5,23.8,2.5,50S23.8,97.5,50,97.5S97.5,76.2,97.5,50S76.2,2.5,50,2.5z M50,89.3     c-21.7,0-39.3-17.6-39.3-39.3S28.3,10.7,50,10.7c21.7,0,39.3,17.6,39.3,39.3S71.7,89.3,50,89.3z"></path></g></g></g></svg>